#N canvas 589 22 696 363 10;
#X obj 73 308 dac~;
#X obj 73 251 osc~ 440;
#X floatatom 119 231 5 0 0 0 - - -;
#X obj 44 197 print tcp;
#X floatatom 358 231 0 0 0 0 - - -;
#X msg 379 117 disconnect;
#X obj 359 203 sendOSC;
#X obj 73 136 unpack f;
#X floatatom 73 169 5 0 0 1 freq_from_SC - -;
#X text 341 40 Sending to SuperCollider;
#X obj 359 70 loadbang;
#X floatatom 482 243 5 50 10000 0 - - -;
#X text 40 41 Receiving from SuperCollider;
#X text 510 89 send a message to sclang;
#X obj 465 129 vsl 15 128 50 2000 0 0 empty empty freq_for_SC 0 -9
0 10 -262144 -1 -1 1869 1;
#X obj 44 60 dumpOSC 47110;
#X text 130 60 port to receive from;
#X obj 58 98 OSCroute /from_SC;
#X msg 371 182 send /to_SC \$1;
#X obj 509 187 random 1000;
#X obj 510 208 + 50;
#X obj 511 142 tgl 15 0 empty empty empty 17 7 0 10 -262144 -1 -1 0
1;
#X msg 359 91 connect localhost 57120;
#X obj 510 164 metro 125;
#X obj 73 278 *~ 0.5;
#X connect 1 0 24 0;
#X connect 2 0 1 0;
#X connect 5 0 6 0;
#X connect 6 0 4 0;
#X connect 7 0 8 0;
#X connect 8 0 1 0;
#X connect 10 0 22 0;
#X connect 11 0 18 0;
#X connect 14 0 11 0;
#X connect 15 0 3 0;
#X connect 15 0 17 0;
#X connect 17 0 7 0;
#X connect 18 0 6 0;
#X connect 19 0 20 0;
#X connect 20 0 14 0;
#X connect 21 0 23 0;
#X connect 22 0 6 0;
#X connect 23 0 19 0;
#X connect 24 0 0 0;
#X connect 24 0 0 1;
